<svg id="visual" viewBox="0 0 900 600" width="900" height="600" xmlns="http://www.w3.org/2000/svg" xmlns:xlink="http://www.w3.org/1999/xlink" version="1.1"><rect x="0" y="0" width="900" height="600" fill="#001220"></rect><path d="M0 227L21.5 220.8C43 214.7 86 202.3 128.8 200C171.7 197.7 214.3 205.3 257.2 209.3C300 213.3 343 213.7 385.8 206.2C428.7 198.7 471.3 183.3 514.2 182C557 180.7 600 193.3 642.8 192.3C685.7 191.3 728.3 176.7 771.2 173.2C814 169.7 857 177.3 878.5 181.2L900 185L900 0L878.5 0C857 0 814 0 771.2 0C728.3 0 685.7 0 642.8 0C600 0 557 0 514.2 0C471.3 0 428.7 0 385.8 0C343 0 300 0 257.2 0C214.3 0 171.7 0 128.8 0C86 0 43 0 21.5 0L0 0Z" fill="#fa7268"></path><path d="M0 133L21.5 143.3C43 153.7 86 174.3 128.8 173.5C171.7 172.7 214.3 150.3 257.2 141.3C300 132.3 343 136.7 385.8 143.5C428.7 150.3 471.3 159.7 514.2 155.8C557 152 600 135 642.8 127.3C685.7 119.7 728.3 121.3 771.2 123.3C814 125.3 857 127.7 878.5 128.8L900 130L900 0L878.5 0C857 0 814 0 771.2 0C728.3 0 685.7 0 642.8 0C600 0 557 0 514.2 0C471.3 0 428.7 0 385.8 0C343 0 300 0 257.2 0C214.3 0 171.7 0 128.8 0C86 0 43 0 21.5 0L0 0Z" fill="#ef5f67"></path><path d="M0 102L21.5 106.7C43 111.3 86 120.7 128.8 125C171.7 129.3 214.3 128.7 257.2 133.8C300 139 343 150 385.8 152.5C428.7 155 471.3 149 514.2 144.2C557 139.3 600 135.7 642.8 134.8C685.7 134 728.3 136 771.2 133.7C814 131.3 857 124.7 878.5 121.3L900 118L900 0L878.5 0C857 0 814 0 771.2 0C728.3 0 685.7 0 642.8 0C600 0 557 0 514.2 0C471.3 0 428.7 0 385.8 0C343 0 300 0 257.2 0C214.3 0 171.7 0 128.8 0C86 0 43 0 21.5 0L0 0Z" fill="#e34c67"></path><path d="M0 94L21.5 93C43 92 86 90 128.8 92C171.7 94 214.3 100 257.2 101.5C300 103 343 100 385.8 97.2C428.7 94.3 471.3 91.7 514.2 89.3C557 87 600 85 642.8 85.2C685.7 85.3 728.3 87.7 771.2 85C814 82.3 857 74.7 878.5 70.8L900 67L900 0L878.5 0C857 0 814 0 771.2 0C728.3 0 685.7 0 642.8 0C600 0 557 0 514.2 0C471.3 0 428.7 0 385.8 0C343 0 300 0 257.2 0C214.3 0 171.7 0 128.8 0C86 0 43 0 21.5 0L0 0Z" fill="#d53867"></path><path d="M0 50L21.5 47.2C43 44.3 86 38.7 128.8 38.5C171.7 38.3 214.3 43.7 257.2 45C300 46.3 343 43.7 385.8 45.7C428.7 47.7 471.3 54.3 514.2 54.8C557 55.3 600 49.7 642.8 50.3C685.7 51 728.3 58 771.2 60C814 62 857 59 878.5 57.5L900 56L900 0L878.5 0C857 0 814 0 771.2 0C728.3 0 685.7 0 642.8 0C600 0 557 0 514.2 0C471.3 0 428.7 0 385.8 0C343 0 300 0 257.2 0C214.3 0 171.7 0 128.8 0C86 0 43 0 21.5 0L0 0Z" fill="#c62368"></path></svg>